<?xml version="1.0" encoding="utf-8"?>
<!-- Generator: Adobe Illustrator 15.0.0, SVG Export Plug-In . SVG Version: 6.00 Build 0)  -->
<!DOCTYPE svg PUBLIC "-//W3C//DTD SVG 1.1//EN" "http://www.w3.org/Graphics/SVG/1.1/DTD/svg11.dtd">
<svg version="1.1" id="Layer_1" xmlns="http://www.w3.org/2000/svg" xmlns:xlink="http://www.w3.org/1999/xlink" x="0px" y="0px"
	 width="665.27px" height="103.885px" viewBox="0 0 665.27 103.885" enable-background="new 0 0 665.27 103.885"
	 xml:space="preserve">
<g>
	<rect x="319.513" fill="#FFFFFF" width="2.476" height="103.885"/>
</g>
<g>
	<path fill="#FFFFFF" d="M662.174,43.846c1.703,0,3.095,1.39,3.095,3.103c0,1.71-1.393,3.098-3.095,3.098
		c-1.712,0-3.105-1.388-3.105-3.098C659.069,45.236,660.462,43.846,662.174,43.846 M662.179,49.582c1.427,0,2.5-1.149,2.5-2.634
		c0-1.487-1.074-2.638-2.5-2.638c-1.441,0-2.515,1.151-2.515,2.638C659.664,48.433,660.738,49.582,662.179,49.582 M660.984,45.125
		h1.393c0.832,0,1.243,0.336,1.243,1.023c0,0.583-0.368,1.006-0.934,1.006l1.03,1.606h-0.629l-1.011-1.606h-0.499v1.606h-0.595
		V45.125z M661.579,46.689h0.702c0.459,0,0.75-0.092,0.75-0.566c0-0.414-0.368-0.534-0.75-0.534h-0.702V46.689z"/>
	<path fill="#FFFFFF" d="M535.978,23.995c23.057,0,52.958,3.536,52.958,18.124c0,5.577-5.533,10.66-7.637,12.423
		c-0.189,0.157-0.193,0.155-0.043-0.041c2.051-2.568,3.052-5.398,3.052-7.845c0-13.944-24.522-19.207-55.734-19.207
		c-60.963,0-129.573,20.789-152.586,37.795c-0.634,0.467-0.672,0.406-0.078-0.106C398.168,45.824,471.527,23.995,535.978,23.995"/>
	<path fill="#FFFFFF" d="M518.014,57.277c-0.184,0.186-2.457,0.123-3.255,0.123v-8.904h0.063h0.677h0.919
		c5.035,0,6.815,1.168,6.815,4.239C523.232,55.435,521.39,57.154,518.014,57.277 M523.721,59.671h-0.058
		c0.058-0.063,0.121-0.063,0.179-0.063c3.749-1.412,5.587-3.927,5.587-7.427c0-2.701-1.103-4.912-3.129-6.324
		c-1.964-1.349-4.663-1.963-8.716-1.963h-9.146v32.343h6.322V62.063c0.188,0,1.963-0.061,2.026,0c3.439,0,4.3,0.858,5.708,5.4
		l2.704,8.774h6.748l-3.372-10.063C527.097,61.816,526.362,60.897,523.721,59.671"/>
	<path fill="#FFFFFF" d="M617.541,58.013h-2.728v-9.454h2.544c4.116,0,6.172,1.166,6.172,4.423
		C623.528,56.417,621.744,58.013,617.541,58.013 M590.237,62.798l4.3-12.188l4.111,12.188H590.237z M568.326,57.277
		c-0.184,0.184-2.452,0.123-3.25,0.123v-8.904h0.058h0.677h0.919c5.035,0,6.815,1.168,6.815,4.239
		C573.545,55.435,571.702,57.154,568.326,57.277 M617.574,43.894h-9.083v27.964l-10.825-27.964h-6.017l-10.941,27.724l-1.823-5.444
		c-1.475-4.358-2.21-5.277-4.852-6.503h-0.058c0.058-0.063,0.121-0.063,0.184-0.063c3.744-1.412,5.582-3.93,5.582-7.427
		c0-2.701-1.103-4.914-3.129-6.324c-1.964-1.352-4.663-1.963-8.716-1.963h-9.146v32.343h6.327V62.063c0.184,0,1.959-0.061,2.022,0
		c3.439,0,4.295,0.858,5.707,5.4l2.704,8.774h10.002c0,0,3.008-8.404,3.008-8.467c0,0.063,11.725,0,11.725,0l2.82,8.467h11.749
		V62.68h2.762c8.251,0,12.068-3.328,12.068-9.698C629.642,46.182,626.396,43.894,617.574,43.894"/>
	<polygon fill="#FFFFFF" points="649.216,43.894 649.216,56.784 636.791,56.784 636.791,43.894 630.469,43.894 630.469,76.237 
		636.791,76.237 636.791,61.57 649.216,61.57 649.216,76.237 655.601,76.237 655.601,43.894 	"/>
	<path fill="#FFFFFF" d="M545.525,58.847v4.97h5.142v6.472c-2.09,1.042-4.111,1.316-6.201,1.316c-5.354,0-7.976-4.445-7.976-11.565
		c0-7.918,3.255-12.155,9.325-12.155c2.888,0,5.403,0.428,8.411,1.475l1.476-4.972c-3.56-0.982-6.201-1.35-9.64-1.35
		c-10.433,0-16.204,6.075-16.204,17.001c0,10.373,6.138,16.875,14.607,16.875c7.415,0,10.409-2.186,12.188-3.816V58.847H545.525z"/>
	<rect x="428.021" y="35.306" fill="#FFFFFF" width="6.307" height="40.936"/>
	<polygon fill="#FFFFFF" points="457.573,43.894 457.573,67.34 444.683,43.894 437.626,43.894 437.626,76.242 443.15,76.242 
		443.15,52.366 456.345,76.242 463.034,76.242 463.034,48.559 471.866,48.559 471.866,76.242 478.188,76.242 478.188,48.559 
		486.884,48.559 486.884,43.894 	"/>
	<polygon fill="#FFFFFF" points="507.291,71.331 494.4,71.331 494.4,61.693 505.631,61.693 505.631,56.968 494.4,56.968 
		494.4,48.559 506.555,48.559 506.555,43.894 488.079,43.894 488.079,76.242 507.291,76.242 	"/>
</g>
<g>
	<g>
		<path fill="#FFFFFF" d="M114.382,62.136V49.855H102.82v12.281h-5.127V33.957h5.127v11.011h11.563V33.957h5.127v28.179H114.382z"/>
		<path fill="#FFFFFF" d="M124.861,62.136V33.957h19.233v4.651h-14.114v6.559h12.322v4.609h-12.322v7.708h14.111v4.653H124.861z"/>
		<path fill="#FFFFFF" d="M164.806,62.136l-6.312-10.256l-6.324,10.256h-5.519l8.859-14.348l-8.781-13.831h5.599l6.321,9.86
			l6.124-9.86h5.565l-8.665,13.875l8.776,14.305H164.806z"/>
		<path fill="#FFFFFF" d="M190.787,62.136l-1.831-5.405h-11.205l-1.828,5.405h-5.166l9.894-28.179h5.601l9.894,28.179H190.787z
			 M183.353,40.237l-4.012,11.889h8.027L183.353,40.237z"/>
		<path fill="#FFFFFF" d="M219.244,62.136l-2.972-3.105c-0.837,1.637-3.536,3.582-7.076,3.62c-3.253,0.039-6.158-0.793-8.387-3.144
			c-2.934-3.054-3.654-6.832-3.654-11.444c0-4.609,0.6-8.264,3.657-11.32c2.147-2.145,5.364-3.306,8.385-3.306
			c3.46,0,6.438,1.277,8.346,3.224c1.396,1.429,2.423,3.221,2.583,5.686h-5.248c-0.08-1.115-0.629-1.865-1.229-2.588
			c-0.992-1.151-2.542-1.707-4.489-1.707c-1.632,0-3.506,0.716-4.617,1.903c-1.939,2.032-2.179,5.529-2.179,8.109
			c0,2.588,0.275,6.204,2.22,8.232c1.118,1.188,2.943,1.787,4.576,1.787c1.824,0,3.255-0.638,4.213-1.63
			c1.504-1.591,1.826-3.34,1.826-5.487h-6.716v-4.254h11.684v15.424H219.244z"/>
		<path fill="#FFFFFF" d="M244.086,59.473c-2.147,2.147-5.086,3.178-8.109,3.178c-3.011,0-5.957-1.03-8.104-3.178
			c-3.062-3.064-3.58-6.798-3.58-11.41c0-4.609,0.518-8.387,3.58-11.444c2.147-2.145,5.093-3.183,8.104-3.183
			c3.023,0,5.961,1.038,8.109,3.183c3.059,3.057,3.579,6.834,3.579,11.444C247.665,52.675,247.145,56.409,244.086,59.473z
			 M240.437,39.954c-1.115-1.187-2.832-1.864-4.459-1.864c-1.621,0-3.342,0.677-4.45,1.864c-1.939,2.032-2.026,5.529-2.026,8.109
			c0,2.588,0.087,6.046,2.026,8.068c1.108,1.197,2.83,1.872,4.45,1.872c1.627,0,3.344-0.675,4.459-1.872
			c1.942-2.021,2.024-5.48,2.024-8.068C242.46,45.483,242.378,41.986,240.437,39.954z"/>
		<path fill="#FFFFFF" d="M268.831,62.136l-12.203-19.357v19.357h-5.047V33.957h5.444l12.039,19.074V33.957h5.047v28.179H268.831z"
			/>
	</g>
	<g>
		<path fill="#FFFFFF" d="M104.639,78.025c-0.655,0.636-1.668,0.95-2.685,0.95c-1.148,0-2.072-0.324-2.713-0.909
			c-0.602-0.563-1.016-1.381-1.016-2.276h1.243c0,0.559,0.28,1.125,0.67,1.497c0.423,0.416,1.146,0.587,1.816,0.587
			c0.721,0,1.335-0.147,1.763-0.549c0.295-0.266,0.481-0.597,0.481-1.105c0-0.733-0.467-1.35-1.591-1.526l-1.495-0.225
			c-1.415-0.215-2.527-1.004-2.527-2.51c0-0.711,0.322-1.393,0.827-1.87c0.658-0.617,1.5-0.938,2.486-0.938
			c0.921,0,1.833,0.305,2.46,0.91c0.575,0.546,0.88,1.229,0.909,2.031h-1.243c-0.026-0.469-0.201-0.885-0.467-1.19
			c-0.36-0.416-0.936-0.655-1.673-0.655c-0.677,0-1.268,0.186-1.681,0.655c-0.242,0.283-0.387,0.603-0.387,1.03
			c0,0.854,0.706,1.243,1.417,1.33c0.532,0.07,1.055,0.165,1.575,0.245c1.577,0.227,2.633,1.187,2.633,2.684
			C105.441,76.982,105.105,77.567,104.639,78.025z"/>
		<path fill="#FFFFFF" d="M113.004,78.801l-0.774-2.247h-4.119l-0.759,2.247h-1.202l3.34-9.473h1.39l3.352,9.473H113.004z
			 M110.157,70.516l-1.668,4.914h3.352L110.157,70.516z"/>
		<path fill="#FFFFFF" d="M116.866,70.424v3.083h4.409v1.12h-4.409v4.174h-1.19v-9.473h6.133v1.096H116.866z"/>
		<path fill="#FFFFFF" d="M123.521,78.801v-9.473h6.332v1.096h-5.144v2.882h4.518v1.12h-4.518v3.277h5.144v1.098H123.521z"/>
		<path fill="#FFFFFF" d="M134.729,70.433v8.368h-1.2v-8.368h-2.82v-1.105h6.839v1.105H134.729z"/>
		<path fill="#FFFFFF" d="M142.107,74.951v3.85h-1.205v-3.85l-3.18-5.623h1.335l2.486,4.5l2.474-4.5h1.267L142.107,74.951z"/>
		<path fill="#FFFFFF" d="M156.068,74.361c0,0.871-0.213,2.005-0.655,2.634l1.618,1.806h-1.441l-0.815-0.926
			c-0.67,0.762-1.698,1.101-2.699,1.101c-1.63,0-2.968-1.045-2.968-2.743c0-0.989,0.508-1.843,1.337-2.365l0.467-0.288
			c-0.617-0.689-1.122-1.231-1.122-2.223c0-1.313,1.013-2.206,2.392-2.206c1.402,0,2.416,0.859,2.416,2.245
			c0,0.895-0.44,1.63-1.216,2.099c-0.227,0.135-0.452,0.292-0.677,0.425l1.961,2.22c0.375-0.687,0.336-1.968,0.336-2.754h2.041
			v0.975H156.068z M151.606,74.336l-0.549,0.349c-0.52,0.348-0.813,0.895-0.813,1.523c0,1.001,0.774,1.708,1.763,1.708
			c0.827,0,1.523-0.189,2.041-0.856L151.606,74.336z M152.153,70.114c-0.747,0-1.255,0.505-1.255,1.226
			c0,0.764,0.614,1.282,1.083,1.807c0.748-0.414,1.509-0.745,1.509-1.741C153.49,70.62,153.009,70.114,152.153,70.114z"/>
		<path fill="#FFFFFF" d="M162.281,78.801v-9.473h1.219v9.473H162.281z"/>
		<path fill="#FFFFFF" d="M171.972,78.801l-4.65-7.615v7.615h-1.151v-9.473h1.337l4.65,7.64v-7.64h1.146v9.473H171.972z"/>
		<path fill="#FFFFFF" d="M177.167,70.424v3.083h4.409v1.12h-4.409v4.174h-1.19v-9.473h6.135v1.096H177.167z"/>
		<path fill="#FFFFFF" d="M189.42,78.801l-1.792-3.942h-2.617v3.942h-1.192v-9.473h3.715c1.11,0,1.886,0.307,2.406,0.839
			c0.455,0.481,0.747,1.098,0.747,1.925s-0.266,1.388-0.721,1.87c-0.278,0.292-0.682,0.52-1.137,0.665l1.898,4.174H189.42z
			 M187.534,70.424h-2.522v3.328h2.522c1.125,0,1.927-0.457,1.927-1.659C189.461,70.888,188.659,70.424,187.534,70.424z"/>
		<path fill="#FFFFFF" d="M198.291,78.801l-0.776-2.247h-4.116l-0.759,2.247h-1.202l3.342-9.473h1.386l3.354,9.473H198.291z
			 M195.444,70.516l-1.668,4.914h3.352L195.444,70.516z"/>
		<path fill="#FFFFFF" d="M206.577,78.025c-0.656,0.636-1.669,0.95-2.687,0.95c-1.151,0-2.07-0.324-2.711-0.909
			c-0.603-0.563-1.016-1.381-1.016-2.276h1.243c0,0.559,0.278,1.125,0.665,1.497c0.428,0.416,1.151,0.587,1.819,0.587
			c0.721,0,1.335-0.147,1.763-0.549c0.295-0.266,0.481-0.597,0.481-1.105c0-0.733-0.467-1.35-1.589-1.526l-1.497-0.225
			c-1.417-0.215-2.522-1.004-2.522-2.51c0-0.711,0.317-1.393,0.827-1.87c0.656-0.617,1.495-0.938,2.484-0.938
			c0.924,0,1.831,0.305,2.457,0.91c0.576,0.546,0.885,1.229,0.909,2.031h-1.24c-0.027-0.469-0.204-0.885-0.469-1.19
			c-0.363-0.416-0.936-0.655-1.669-0.655c-0.684,0-1.272,0.186-1.686,0.655c-0.239,0.283-0.387,0.603-0.387,1.03
			c0,0.854,0.708,1.243,1.419,1.33c0.532,0.07,1.054,0.165,1.572,0.245c1.577,0.227,2.634,1.187,2.634,2.684
			C207.377,76.982,207.043,77.567,206.577,78.025z"/>
		<path fill="#FFFFFF" d="M211.974,70.433v8.368h-1.204v-8.368h-2.817v-1.105h6.839v1.105H211.974z"/>
		<path fill="#FFFFFF" d="M221.902,78.801l-1.792-3.942h-2.617v3.942h-1.19v-9.473h3.712c1.11,0,1.886,0.307,2.406,0.839
			c0.457,0.481,0.747,1.098,0.747,1.925s-0.266,1.388-0.721,1.87c-0.278,0.292-0.68,0.52-1.134,0.665l1.898,4.174H221.902z
			 M220.016,70.424h-2.522v3.328h2.522c1.125,0,1.927-0.457,1.927-1.659C221.943,70.888,221.14,70.424,220.016,70.424z"/>
		<path fill="#FFFFFF" d="M228.342,78.975c-2.125,0-3.46-1.282-3.46-3.652v-5.995h1.19v6.024c0,1.509,0.626,2.51,2.271,2.51
			c1.642,0,2.271-1.001,2.271-2.51v-6.024h1.19v5.995C231.803,77.693,230.465,78.975,228.342,78.975z"/>
		<path fill="#FFFFFF" d="M239.873,77.967c-0.576,0.578-1.512,1.018-2.54,1.018c-0.948,0-1.881-0.348-2.563-1.018
			c-1.03-0.999-1.19-2.387-1.19-3.898c0-1.509,0.16-2.9,1.19-3.901c0.682-0.667,1.616-1.016,2.563-1.016
			c1.028,0,1.952,0.404,2.527,0.972c0.546,0.562,0.895,1.282,0.934,2.167h-1.229c-0.015-0.522-0.213-0.972-0.522-1.32
			c-0.373-0.416-0.987-0.696-1.71-0.696c-0.641,0-1.267,0.254-1.722,0.718c-0.776,0.803-0.803,2.084-0.803,3.076
			c0,0.989,0.027,2.275,0.803,3.071c0.455,0.472,1.081,0.723,1.722,0.723c0.723,0,1.352-0.307,1.725-0.723
			c0.307-0.348,0.508-0.839,0.522-1.362h1.229C240.768,76.666,240.422,77.408,239.873,77.967z"/>
		<path fill="#FFFFFF" d="M245.203,70.433v8.368h-1.202v-8.368h-2.817v-1.105h6.837v1.105H245.203z"/>
		<path fill="#FFFFFF" d="M252.727,78.975c-2.123,0-3.46-1.282-3.46-3.652v-5.995h1.19v6.024c0,1.509,0.628,2.51,2.271,2.51
			c1.645,0,2.271-1.001,2.271-2.51v-6.024h1.19v5.995C256.188,77.693,254.853,78.975,252.727,78.975z"/>
		<path fill="#FFFFFF" d="M264.192,78.801l-1.792-3.942h-2.617v3.942h-1.19v-9.473h3.712c1.11,0,1.886,0.307,2.406,0.839
			c0.455,0.481,0.747,1.098,0.747,1.925s-0.266,1.388-0.721,1.87c-0.28,0.292-0.682,0.52-1.134,0.665l1.894,4.174H264.192z
			 M262.306,70.424h-2.522v3.328h2.522c1.125,0,1.927-0.457,1.927-1.659C264.233,70.888,263.431,70.424,262.306,70.424z"/>
		<path fill="#FFFFFF" d="M267.438,78.801v-9.473h6.333v1.096h-5.144v2.882h4.515v1.12h-4.515v3.277h5.144v1.098H267.438z"/>
	</g>
</g>
<g>
	<g>
		<polygon opacity="0.75" fill="#FFFFFF" points="5.24,68.228 29.163,68.228 23.18,57.872 		"/>
		<polygon opacity="0.4" fill="#FFFFFF" points="53.088,68.228 77.008,26.791 41.125,47.512 41.125,68.228 		"/>
		<polygon opacity="0.6" fill="#FFFFFF" points="41.125,88.949 77.011,68.228 53.088,68.228 		"/>
		<polygon opacity="0.9" fill="#FFFFFF" points="77.008,26.791 53.088,68.228 77.011,68.228 77.011,26.791 		"/>
		<polygon opacity="0.6" fill="#FFFFFF" points="23.18,57.872 41.125,47.512 41.125,6.07 17.202,47.512 		"/>
		<polygon opacity="0.4" fill="#FFFFFF" points="29.163,68.228 41.125,88.949 41.125,68.228 		"/>
		<polygon fill="#FFFFFF" points="41.125,47.512 23.18,57.872 29.163,68.228 41.125,68.228 		"/>
		<polygon opacity="0.4" fill="#FFFFFF" points="5.24,26.791 5.24,68.228 17.202,47.512 		"/>
		<polygon opacity="0.9" fill="#FFFFFF" points="41.125,6.07 5.24,26.791 17.202,47.512 		"/>
	</g>
</g>
</svg>
